<?xml version="1.0" standalone="no"?>
<!DOCTYPE svg PUBLIC "-//W3C//DTD SVG 20010904//EN"
 "http://www.w3.org/TR/2001/REC-SVG-20010904/DTD/svg10.dtd">
<svg version="1.0" xmlns="http://www.w3.org/2000/svg"
 width="208.000000pt" height="208.000000pt" viewBox="0 0 208.000000 208.000000"
 preserveAspectRatio="xMidYMid meet">
<metadata>
Created by potrace 1.14, written by Peter Selinger 2001-2017
</metadata>
<g transform="translate(0.000000,208.000000) scale(0.100000,-0.100000)"
fill="#000000" stroke="none">
<path d="M1002 2018 c-6 -6 -12 -18 -12 -26 0 -7 -4 -11 -8 -8 -5 3 -9 -1 -9
-9 0 -8 4 -12 7 -10 12 7 22 -55 21 -125 -4 -225 -8 -240 -62 -240 -16 0 -29
-4 -29 -8 0 -5 -6 -9 -12 -10 -54 -4 -114 -16 -116 -24 -2 -5 -11 -3 -20 4
-12 10 -14 10 -8 1 5 -9 0 -13 -14 -13 -17 0 -20 -5 -18 -36 2 -30 5 -34 23
-30 11 3 26 6 33 6 7 0 10 5 7 10 -4 6 35 10 110 10 113 0 116 0 127 -25 14
-32 26 -32 34 1 5 19 9 22 15 12 6 -10 9 -10 9 0 0 19 189 17 226 -3 41 -21
49 -19 52 14 2 24 -4 32 -28 45 -19 9 -28 10 -23 3 5 -9 3 -9 -8 0 -14 11 -79
26 -111 25 -10 -1 -18 4 -18 10 0 6 -7 5 -17 -3 -9 -8 -14 -9 -10 -2 5 7 -4
14 -23 18 -16 4 -31 10 -32 13 -3 15 -7 112 -8 195 -1 48 -5 85 -10 82 -5 -3
2 15 15 39 18 33 20 47 12 55 -7 7 -12 17 -12 24 0 16 -67 21 -83 5z"/>
<path d="M6 1745 c3 -7 12 -16 20 -19 8 -3 14 -12 14 -21 0 -8 4 -15 10 -15 5
0 12 -11 16 -25 3 -14 10 -23 14 -20 5 3 12 -5 16 -17 3 -12 13 -28 20 -36 8
-7 14 -20 14 -28 0 -8 5 -12 10 -9 6 3 10 0 10 -8 0 -8 9 -24 20 -37 11 -13
20 -29 20 -35 0 -7 7 -15 15 -19 8 -3 15 -12 15 -21 0 -8 4 -15 9 -15 5 0 13
-10 17 -22 3 -12 12 -27 18 -34 6 -6 20 -24 30 -38 10 -14 25 -26 33 -26 8 0
11 -4 8 -10 -3 -5 -1 -10 6 -10 7 0 20 -7 30 -16 9 -8 24 -16 32 -18 8 -1 22
-9 31 -19 10 -9 23 -17 31 -17 7 0 16 -7 19 -16 3 -8 10 -13 15 -9 5 3 12 1
16 -5 4 -6 11 -7 17 -4 7 4 8 2 4 -4 -4 -7 3 -14 19 -18 13 -3 23 -10 20 -14
-5 -8 32 -23 48 -21 5 1 6 -3 2 -8 -3 -6 6 -13 20 -17 14 -3 25 -10 25 -14 0
-5 10 -12 23 -16 12 -4 24 -10 27 -14 3 -5 26 -19 52 -33 26 -14 45 -27 42
-30 -3 -2 7 -8 21 -11 14 -4 30 -17 36 -29 21 -45 49 -92 49 -82 0 6 5 3 10
-5 8 -11 10 -2 8 34 -1 29 -7 50 -15 53 -7 3 -10 9 -7 14 3 5 0 9 -5 9 -6 0
-11 7 -11 16 0 8 -4 13 -9 9 -5 -3 -12 3 -16 14 -3 11 -12 22 -20 25 -8 3 -15
13 -15 21 0 9 -5 13 -10 10 -6 -3 -13 2 -17 11 -3 10 -24 35 -45 56 -21 21
-38 43 -38 48 0 6 -7 10 -15 10 -8 0 -15 7 -15 15 0 8 -8 15 -17 15 -13 0 -15
2 -5 8 9 6 6 12 -13 20 -14 6 -25 16 -25 21 0 12 -89 101 -101 101 -6 0 -7 5
-4 10 3 6 -1 10 -9 10 -8 0 -22 8 -32 18 -10 9 -20 17 -24 17 -4 0 -14 8 -24
18 -10 9 -22 17 -27 17 -6 0 -7 5 -4 10 4 6 2 9 -3 8 -8 -3 -42 19 -84 55 -12
9 -27 17 -35 17 -8 0 -12 4 -8 9 3 5 -3 12 -12 15 -10 4 -33 20 -52 36 -18 17
-40 30 -48 30 -8 0 -12 4 -9 9 3 4 -6 13 -19 19 -14 7 -25 16 -25 22 0 6 -5 8
-10 5 -6 -3 -13 1 -16 9 -3 9 -10 13 -15 10 -5 -3 -9 0 -9 5 0 6 -6 11 -14 11
-8 0 -16 5 -18 12 -2 6 -11 12 -20 14 -10 1 -15 -3 -12 -11z"/>
<path d="M2024 1737 c-6 -7 -21 -19 -34 -27 -12 -8 -30 -22 -40 -30 -10 -8
-28 -22 -40 -30 -12 -8 -34 -25 -48 -37 -14 -12 -30 -19 -35 -16 -6 3 -8 2 -5
-3 3 -5 -12 -20 -33 -34 -21 -13 -39 -28 -39 -32 0 -4 -4 -8 -10 -8 -12 0
-104 -69 -108 -81 -2 -5 -10 -9 -18 -9 -8 0 -14 -5 -14 -11 0 -5 -4 -8 -9 -5
-5 3 -11 -1 -15 -9 -3 -8 -12 -15 -20 -15 -7 0 -16 -7 -20 -15 -3 -8 -13 -15
-22 -15 -10 0 -15 -3 -12 -6 4 -3 -14 -25 -38 -49 -24 -25 -44 -49 -44 -55 0
-5 -6 -9 -12 -8 -7 2 -12 -3 -11 -9 2 -7 -2 -13 -7 -13 -6 0 -10 -6 -10 -14 0
-8 -9 -18 -20 -21 -11 -4 -18 -10 -15 -15 3 -4 -2 -10 -10 -14 -8 -3 -15 -12
-15 -21 0 -8 -6 -14 -12 -12 -7 1 -12 -4 -11 -10 2 -7 -4 -13 -12 -13 -8 0
-15 -4 -15 -10 0 -5 -16 -26 -35 -46 -19 -19 -35 -40 -35 -45 0 -6 -4 -7 -10
-4 -5 3 -10 0 -10 -8 0 -8 -9 -24 -20 -37 -24 -28 -29 -103 -6 -94 8 3 17 16
20 30 4 13 11 24 16 24 6 0 10 6 10 14 0 8 12 24 28 35 15 12 32 25 38 30 7 6
14 7 18 4 3 -3 8 2 12 11 3 9 10 14 14 11 4 -3 10 2 14 10 3 8 15 15 27 15 12
0 19 3 16 7 -7 6 14 21 66 46 15 7 24 16 20 20 -3 4 -1 7 4 7 6 0 35 16 64 35
30 19 62 35 71 35 10 0 17 6 16 13 -2 6 3 11 10 9 7 -1 15 5 18 13 4 8 11 15
18 15 6 0 28 11 47 25 20 13 40 21 44 17 5 -4 5 -1 1 6 -4 6 -3 12 2 12 5 0
21 11 36 25 15 14 23 25 17 25 -6 0 1 12 14 26 13 14 27 35 30 45 4 11 11 17
16 13 5 -3 8 -1 7 3 -2 5 14 35 35 67 20 32 37 62 37 66 0 5 3 10 8 12 11 5
52 66 52 78 0 5 4 10 10 10 5 0 12 11 16 25 3 14 12 25 20 25 8 0 14 7 14 15
0 18 -21 19 -36 2z"/>
<path d="M968 1442 c-2 -9 -3 -306 -2 -660 2 -478 6 -647 15 -658 6 -8 8 -14
3 -14 -5 0 -1 -5 9 -11 9 -6 14 -15 11 -21 -4 -6 -3 -8 3 -5 6 4 14 -3 17 -16
6 -22 6 -22 21 -2 8 11 18 25 23 30 4 6 11 18 15 28 3 9 11 17 17 17 5 0 10 5
10 11 0 5 -4 8 -9 5 -9 -6 -7 51 3 61 3 3 1 12 -6 20 -8 10 -8 17 0 25 7 7 12
19 12 28 0 13 -1 13 -10 0 -14 -22 -12 -3 3 21 10 18 9 23 -1 26 -10 4 -10 8
-2 19 7 7 8 19 4 26 -11 18 -14 39 -4 33 4 -3 9 118 10 268 1 149 3 376 4 502
1 127 0 240 -2 252 -6 32 -33 38 -54 11 -17 -22 -19 -22 -32 -5 -19 25 -53 30
-58 9z m54 -62 c4 -8 7 -301 7 -650 -1 -349 -3 -629 -6 -622 -2 6 -9 10 -14 6
-5 -3 -10 -2 -10 3 -1 4 -2 295 -3 645 -1 609 1 672 26 618z"/>
<path d="M630 1336 c0 -2 16 -20 35 -40 19 -21 35 -42 35 -47 0 -5 5 -8 12 -6
7 1 13 -5 13 -13 1 -8 6 -14 13 -12 7 1 12 -3 12 -9 0 -7 16 -27 35 -46 19
-19 35 -39 35 -44 0 -6 4 -7 10 -4 5 3 12 -6 16 -20 3 -13 10 -22 15 -19 5 3
9 1 9 -5 0 -9 57 -71 65 -71 2 0 2 18 1 40 -2 26 -10 46 -22 55 -11 8 -16 15
-12 15 4 0 -9 16 -28 36 -34 36 -44 64 -23 64 5 0 7 -6 3 -12 -6 -10 -4 -10 7
0 15 14 33 17 25 4 -3 -5 1 -9 8 -9 7 0 13 6 13 14 0 7 -7 13 -14 13 -8 0 -21
7 -29 15 -9 8 -24 15 -35 15 -10 0 -19 4 -19 9 0 5 -13 12 -30 16 -16 4 -30
10 -30 15 0 5 -13 11 -30 15 -16 4 -30 11 -30 17 0 6 -9 8 -20 5 -11 -3 -18
-1 -14 4 3 5 -2 9 -10 9 -9 0 -16 -2 -16 -4z"/>
<path d="M1408 1332 c-10 -2 -18 -7 -18 -12 0 -5 -13 -11 -30 -15 -16 -4 -30
-11 -30 -16 0 -5 -4 -9 -10 -9 -18 0 -110 -44 -110 -52 0 -4 -12 -9 -27 -9
-17 -1 -21 -3 -10 -6 9 -2 17 -10 17 -16 0 -8 4 -7 12 1 7 7 18 12 25 12 20 0
15 -27 -9 -50 -12 -11 -18 -20 -12 -20 5 -1 -2 -7 -16 -15 -14 -8 -21 -14 -16
-15 6 0 0 -9 -12 -20 -17 -16 -22 -31 -21 -68 1 -26 3 -39 6 -29 2 9 9 15 14
12 5 -4 9 0 9 7 1 17 35 58 50 58 6 0 9 4 5 9 -3 6 3 14 12 20 10 6 14 11 10
11 -12 0 44 50 56 50 6 0 8 3 4 6 -3 4 6 19 21 34 47 47 82 90 75 90 -4 0 1 6
11 13 22 16 18 34 -6 29z"/>
<path d="M403 1180 c1 -10 5 -16 9 -14 4 3 8 1 8 -4 0 -5 8 -18 18 -30 9 -11
24 -30 32 -42 8 -12 23 -33 33 -45 9 -13 17 -28 17 -34 0 -6 6 -10 13 -8 6 1
11 -3 10 -9 -1 -7 13 -15 32 -18 18 -4 35 -11 37 -16 2 -5 19 -12 38 -15 19
-3 37 -10 38 -16 2 -5 8 -9 13 -9 35 0 140 -67 138 -87 0 -4 8 -10 18 -14 10
-4 12 -8 5 -8 -7 -1 -1 -12 14 -26 28 -26 31 -35 36 -92 1 -17 5 -30 9 -27 4
2 10 -10 12 -28 2 -18 4 13 3 70 -1 87 -4 105 -18 113 -10 6 -18 17 -18 24 0
8 -4 15 -9 15 -5 0 -13 10 -17 23 -4 12 -12 25 -18 29 -6 4 -11 13 -11 19 0 7
-11 14 -25 16 -13 2 -28 10 -33 18 -4 8 -15 15 -22 15 -8 0 -15 4 -15 10 0 5
-11 12 -25 16 -14 3 -25 10 -25 15 0 5 -5 9 -11 9 -6 0 -22 9 -36 20 -14 11
-29 17 -34 14 -5 -3 -12 2 -15 10 -3 9 -12 16 -19 16 -8 0 -20 6 -27 13 -7 7
-20 16 -28 20 -8 4 -28 16 -45 27 -16 10 -42 25 -57 33 -24 14 -26 13 -25 -3z"/>
<path d="M1653 1188 c-13 -6 -23 -15 -23 -19 0 -4 -14 -10 -30 -14 -17 -4 -28
-10 -25 -15 3 -5 -8 -11 -25 -15 -17 -4 -28 -10 -25 -15 3 -4 -6 -11 -20 -14
-14 -4 -25 -10 -25 -15 0 -5 -14 -12 -30 -16 -17 -4 -28 -11 -24 -16 3 -5 -2
-9 -10 -9 -8 0 -21 -6 -28 -12 -7 -7 -25 -19 -40 -27 -15 -8 -36 -22 -46 -31
-10 -9 -30 -20 -46 -24 -16 -4 -26 -10 -23 -13 4 -3 -3 -17 -13 -31 -11 -13
-20 -32 -20 -41 0 -14 -2 -14 -10 -1 -8 12 -10 11 -10 -5 0 -11 -9 -28 -20
-38 -20 -17 -23 -39 -21 -150 0 -35 -3 -46 -12 -41 -9 5 -9 4 0 -6 15 -17 20
-13 25 20 1 14 6 27 10 30 4 3 8 25 9 49 2 24 9 45 16 48 7 3 13 11 13 18 0 8
13 23 29 35 17 11 33 30 36 41 4 11 19 22 36 26 16 3 27 9 24 13 -3 4 11 11
30 14 19 4 35 11 35 15 0 5 15 12 34 15 19 4 36 11 38 16 2 5 16 11 31 14 31
5 57 23 57 38 0 5 5 14 10 21 6 7 24 28 40 47 16 19 32 43 36 53 3 9 9 17 13
17 4 0 13 11 19 25 6 14 11 25 9 24 -1 0 -12 -5 -24 -11z"/>
</g>
</svg>
